<svg xmlns="http://www.w3.org/2000/svg" xmlns:xlink="http://www.w3.org/1999/xlink" width="1364" height="636" viewBox="0 0 1023 477"><g id="graph0" class="graph" transform="scale(1 1) rotate(0) translate(4 473)"><title>Tree</title><polygon fill="#fff" stroke="none" points="-4 4 -4 -473 1019 -473 1019 4 -4 4"/><g id="node1" class="node"><title>0</title><polygon fill="#399de5" fill-opacity=".404" stroke="#000" points="631 -469 486 -469 486 -401 631 -401 631 -469"/><text x="558.5" y="-453.8" font-family="Times,serif" font-size="14" text-anchor="middle">worst radius &lt;= 16.795</text><text x="558.5" y="-438.8" font-family="Times,serif" font-size="14" text-anchor="middle">samples = 426</text><text x="558.5" y="-423.8" font-family="Times,serif" font-size="14" text-anchor="middle">value = [159, 267]</text><text x="558.5" y="-408.8" font-family="Times,serif" font-size="14" text-anchor="middle">class = benign</text></g><g id="node2" class="node"><title>1</title><polygon fill="#399de5" fill-opacity=".902" stroke="#000" points="556.5 -365 370.5 -365 370.5 -297 556.5 -297 556.5 -365"/><text x="463.5" y="-349.8" font-family="Times,serif" font-size="14" text-anchor="middle">worst concave points &lt;= 0.136</text><text x="463.5" y="-334.8" font-family="Times,serif" font-size="14" text-anchor="middle">samples = 284</text><text x="463.5" y="-319.8" font-family="Times,serif" font-size="14" text-anchor="middle">value = [25, 259]</text><text x="463.5" y="-304.8" font-family="Times,serif" font-size="14" text-anchor="middle">class = benign</text></g><g id="edge1" class="edge"><title>0-&gt;1</title><path fill="none" stroke="#000" d="M527.656,-400.884C519.277,-391.887 510.106,-382.041 501.387,-372.678"/><polygon fill="#000" stroke="#000" points="503.891 -370.232 494.514 -365.299 498.768 -375.003 503.891 -370.232"/><text x="493.626" y="-386.584" font-family="Times,serif" font-size="14" text-anchor="middle">True</text></g><g id="node15" class="node"><title>14</title><polygon fill="#e58139" fill-opacity=".941" stroke="#000" points="724 -365 585 -365 585 -297 724 -297 724 -365"/><text x="654.5" y="-349.8" font-family="Times,serif" font-size="14" text-anchor="middle">texture error &lt;= 0.473</text><text x="654.5" y="-334.8" font-family="Times,serif" font-size="14" text-anchor="middle">samples = 142</text><text x="654.5" y="-319.8" font-family="Times,serif" font-size="14" text-anchor="middle">value = [134, 8]</text><text x="654.5" y="-304.8" font-family="Times,serif" font-size="14" text-anchor="middle">class = malignant</text></g><g id="edge14" class="edge"><title>0-&gt;14</title><path fill="none" stroke="#000" d="M589.668,-400.884C598.136,-391.887 607.403,-382.041 616.215,-372.678"/><polygon fill="#000" stroke="#000" points="618.854 -374.98 623.159 -365.299 613.757 -370.183 618.854 -374.98"/><text x="623.917" y="-386.588" font-family="Times,serif" font-size="14" text-anchor="middle">False</text></g><g id="node3" class="node"><title>2</title><polygon fill="#399de5" fill-opacity=".984" stroke="#000" points="351.5 -261 217.5 -261 217.5 -193 351.5 -193 351.5 -261"/><text x="284.5" y="-245.8" font-family="Times,serif" font-size="14" text-anchor="middle">radius error &lt;= 1.048</text><text x="284.5" y="-230.8" font-family="Times,serif" font-size="14" text-anchor="middle">samples = 252</text><text x="284.5" y="-215.8" font-family="Times,serif" font-size="14" text-anchor="middle">value = [4, 248]</text><text x="284.5" y="-200.8" font-family="Times,serif" font-size="14" text-anchor="middle">class = benign</text></g><g id="edge2" class="edge"><title>1-&gt;2</title><path fill="none" stroke="#000" d="M405.384,-296.884C388.258,-287.125 369.378,-276.366 351.731,-266.31"/><polygon fill="#000" stroke="#000" points="353.052 -263.035 342.631 -261.125 349.586 -269.117 353.052 -263.035"/></g><g id="node8" class="node"><title>7</title><polygon fill="#e58139" fill-opacity=".475" stroke="#000" points="535 -261 392 -261 392 -193 535 -193 535 -261"/><text x="463.5" y="-245.8" font-family="Times,serif" font-size="14" text-anchor="middle">worst texture &lt;= 25.62</text><text x="463.5" y="-230.8" font-family="Times,serif" font-size="14" text-anchor="middle">samples = 32</text><text x="463.5" y="-215.8" font-family="Times,serif" font-size="14" text-anchor="middle">value = [21, 11]</text><text x="463.5" y="-200.8" font-family="Times,serif" font-size="14" text-anchor="middle">class = malignant</text></g><g id="edge7" class="edge"><title>1-&gt;7</title><path fill="none" stroke="#000" d="M463.5,-296.884C463.5,-288.778 463.5,-279.982 463.5,-271.472"/><polygon fill="#000" stroke="#000" points="467 -271.299 463.5 -261.299 460 -271.299 467 -271.299"/></g><g id="node4" class="node"><title>3</title><polygon fill="#399de5" fill-opacity=".988" stroke="#000" points="210 -157 45 -157 45 -89 210 -89 210 -157"/><text x="127.5" y="-141.8" font-family="Times,serif" font-size="14" text-anchor="middle">smoothness error &lt;= 0.003</text><text x="127.5" y="-126.8" font-family="Times,serif" font-size="14" text-anchor="middle">samples = 251</text><text x="127.5" y="-111.8" font-family="Times,serif" font-size="14" text-anchor="middle">value = [3, 248]</text><text x="127.5" y="-96.8" font-family="Times,serif" font-size="14" text-anchor="middle">class = benign</text></g><g id="edge3" class="edge"><title>2-&gt;3</title><path fill="none" stroke="#000" d="M233.527,-192.884C218.644,-183.214 202.25,-172.563 186.894,-162.587"/><polygon fill="#000" stroke="#000" points="188.779 -159.638 178.486 -157.125 184.965 -165.508 188.779 -159.638"/></g><g id="node7" class="node"><title>6</title><polygon fill="#e58139" stroke="#000" points="341 -149.5 228 -149.5 228 -96.5 341 -96.5 341 -149.5"/><text x="284.5" y="-134.3" font-family="Times,serif" font-size="14" text-anchor="middle">samples = 1</text><text x="284.5" y="-119.3" font-family="Times,serif" font-size="14" text-anchor="middle">value = [1, 0]</text><text x="284.5" y="-104.3" font-family="Times,serif" font-size="14" text-anchor="middle">class = malignant</text></g><g id="edge6" class="edge"><title>2-&gt;6</title><path fill="none" stroke="#000" d="M284.5,-192.884C284.5,-182.326 284.5,-170.597 284.5,-159.854"/><polygon fill="#000" stroke="#000" points="288 -159.52 284.5 -149.52 281 -159.52 288 -159.52"/></g><g id="node5" class="node"><title>4</title><polygon fill="#399de5" fill-opacity=".667" stroke="#000" points="95 -53 0 -53 0 0 95 0 95 -53"/><text x="47.5" y="-37.8" font-family="Times,serif" font-size="14" text-anchor="middle">samples = 4</text><text x="47.5" y="-22.8" font-family="Times,serif" font-size="14" text-anchor="middle">value = [1, 3]</text><text x="47.5" y="-7.8" font-family="Times,serif" font-size="14" text-anchor="middle">class = benign</text></g><g id="edge4" class="edge"><title>3-&gt;4</title><path fill="none" stroke="#000" d="M99.5199,-88.9485C91.853,-79.892 83.5366,-70.0682 75.8492,-60.9875"/><polygon fill="#000" stroke="#000" points="78.42 -58.608 69.288 -53.237 73.078 -63.13 78.42 -58.608"/></g><g id="node6" class="node"><title>5</title><polygon fill="#399de5" fill-opacity=".992" stroke="#000" points="218 -53 113 -53 113 0 218 0 218 -53"/><text x="165.5" y="-37.8" font-family="Times,serif" font-size="14" text-anchor="middle">samples = 247</text><text x="165.5" y="-22.8" font-family="Times,serif" font-size="14" text-anchor="middle">value = [2, 245]</text><text x="165.5" y="-7.8" font-family="Times,serif" font-size="14" text-anchor="middle">class = benign</text></g><g id="edge5" class="edge"><title>3-&gt;5</title><path fill="none" stroke="#000" d="M140.791,-88.9485C144.212,-80.4408 147.905,-71.2562 151.367,-62.6464"/><polygon fill="#000" stroke="#000" points="154.667 -63.821 155.151 -53.237 148.173 -61.209 154.667 -63.821"/></g><g id="node9" class="node"><title>8</title><polygon fill="#399de5" fill-opacity=".667" stroke="#000" points="528 -157 359 -157 359 -89 528 -89 528 -157"/><text x="443.5" y="-141.8" font-family="Times,serif" font-size="14" text-anchor="middle">worst smoothness &lt;= 0.179</text><text x="443.5" y="-126.8" font-family="Times,serif" font-size="14" text-anchor="middle">samples = 12</text><text x="443.5" y="-111.8" font-family="Times,serif" font-size="14" text-anchor="middle">value = [3, 9]</text><text x="443.5" y="-96.8" font-family="Times,serif" font-size="14" text-anchor="middle">class = benign</text></g><g id="edge8" class="edge"><title>7-&gt;8</title><path fill="none" stroke="#000" d="M457.007,-192.884C455.4,-184.689 453.655,-175.789 451.969,-167.192"/><polygon fill="#000" stroke="#000" points="455.388 -166.439 450.029 -157.299 448.519 -167.786 455.388 -166.439"/></g><g id="node12" class="node"><title>11</title><polygon fill="#e58139" fill-opacity=".89" stroke="#000" points="707 -157 546 -157 546 -89 707 -89 707 -157"/><text x="626.5" y="-141.8" font-family="Times,serif" font-size="14" text-anchor="middle">worst symmetry &lt;= 0.268</text><text x="626.5" y="-126.8" font-family="Times,serif" font-size="14" text-anchor="middle">samples = 20</text><text x="626.5" y="-111.8" font-family="Times,serif" font-size="14" text-anchor="middle">value = [18, 2]</text><text x="626.5" y="-96.8" font-family="Times,serif" font-size="14" text-anchor="middle">class = malignant</text></g><g id="edge11" class="edge"><title>7-&gt;11</title><path fill="none" stroke="#000" d="M516.421,-192.884C531.873,-183.214 548.894,-172.563 564.836,-162.587"/><polygon fill="#000" stroke="#000" points="566.945 -165.396 573.565 -157.125 563.232 -159.462 566.945 -165.396"/></g><g id="node10" class="node"><title>9</title><polygon fill="#399de5" fill-opacity=".89" stroke="#000" points="369 -53 274 -53 274 0 369 0 369 -53"/><text x="321.5" y="-37.8" font-family="Times,serif" font-size="14" text-anchor="middle">samples = 10</text><text x="321.5" y="-22.8" font-family="Times,serif" font-size="14" text-anchor="middle">value = [1, 9]</text><text x="321.5" y="-7.8" font-family="Times,serif" font-size="14" text-anchor="middle">class = benign</text></g><g id="edge9" class="edge"><title>8-&gt;9</title><path fill="none" stroke="#000" d="M400.83,-88.9485C388.548,-79.4346 375.172,-69.074 362.964,-59.6175"/><polygon fill="#000" stroke="#000" points="364.775 -56.593 354.726 -53.237 360.489 -62.127 364.775 -56.593"/></g><g id="node11" class="node"><title>10</title><polygon fill="#e58139" stroke="#000" points="500 -53 387 -53 387 0 500 0 500 -53"/><text x="443.5" y="-37.8" font-family="Times,serif" font-size="14" text-anchor="middle">samples = 2</text><text x="443.5" y="-22.8" font-family="Times,serif" font-size="14" text-anchor="middle">value = [2, 0]</text><text x="443.5" y="-7.8" font-family="Times,serif" font-size="14" text-anchor="middle">class = malignant</text></g><g id="edge10" class="edge"><title>8-&gt;10</title><path fill="none" stroke="#000" d="M443.5,-88.9485C443.5,-80.7153 443.5,-71.848 443.5,-63.4814"/><polygon fill="#000" stroke="#000" points="447 -63.237 443.5 -53.237 440 -63.237 447 -63.237"/></g><g id="node13" class="node"><title>12</title><polygon fill="#399de5" fill-opacity=".498" stroke="#000" points="613 -53 518 -53 518 0 613 0 613 -53"/><text x="565.5" y="-37.8" font-family="Times,serif" font-size="14" text-anchor="middle">samples = 3</text><text x="565.5" y="-22.8" font-family="Times,serif" font-size="14" text-anchor="middle">value = [1, 2]</text><text x="565.5" y="-7.8" font-family="Times,serif" font-size="14" text-anchor="middle">class = benign</text></g><g id="edge12" class="edge"><title>11-&gt;12</title><path fill="none" stroke="#000" d="M605.165,-88.9485C599.496,-80.1664 593.362,-70.6629 587.65,-61.815"/><polygon fill="#000" stroke="#000" points="590.477 -59.74 582.113 -53.237 584.596 -63.536 590.477 -59.74"/></g><g id="node14" class="node"><title>13</title><polygon fill="#e58139" stroke="#000" points="744 -53 631 -53 631 0 744 0 744 -53"/><text x="687.5" y="-37.8" font-family="Times,serif" font-size="14" text-anchor="middle">samples = 17</text><text x="687.5" y="-22.8" font-family="Times,serif" font-size="14" text-anchor="middle">value = [17, 0]</text><text x="687.5" y="-7.8" font-family="Times,serif" font-size="14" text-anchor="middle">class = malignant</text></g><g id="edge13" class="edge"><title>11-&gt;13</title><path fill="none" stroke="#000" d="M647.835,-88.9485C653.504,-80.1664 659.638,-70.6629 665.35,-61.815"/><polygon fill="#000" stroke="#000" points="668.404 -63.536 670.887 -53.237 662.523 -59.74 668.404 -63.536"/></g><g id="node16" class="node"><title>15</title><polygon fill="#399de5" stroke="#000" points="702 -253.5 607 -253.5 607 -200.5 702 -200.5 702 -253.5"/><text x="654.5" y="-238.3" font-family="Times,serif" font-size="14" text-anchor="middle">samples = 5</text><text x="654.5" y="-223.3" font-family="Times,serif" font-size="14" text-anchor="middle">value = [0, 5]</text><text x="654.5" y="-208.3" font-family="Times,serif" font-size="14" text-anchor="middle">class = benign</text></g><g id="edge15" class="edge"><title>14-&gt;15</title><path fill="none" stroke="#000" d="M654.5,-296.884C654.5,-286.326 654.5,-274.597 654.5,-263.854"/><polygon fill="#000" stroke="#000" points="658 -263.52 654.5 -253.52 651 -263.52 658 -263.52"/></g><g id="node17" class="node"><title>16</title><polygon fill="#e58139" fill-opacity=".976" stroke="#000" points="888.5 -261 730.5 -261 730.5 -193 888.5 -193 888.5 -261"/><text x="809.5" y="-245.8" font-family="Times,serif" font-size="14" text-anchor="middle">worst concavity &lt;= 0.191</text><text x="809.5" y="-230.8" font-family="Times,serif" font-size="14" text-anchor="middle">samples = 137</text><text x="809.5" y="-215.8" font-family="Times,serif" font-size="14" text-anchor="middle">value = [134, 3]</text><text x="809.5" y="-200.8" font-family="Times,serif" font-size="14" text-anchor="middle">class = malignant</text></g><g id="edge16" class="edge"><title>14-&gt;16</title><path fill="none" stroke="#000" d="M704.824,-296.884C719.381,-287.304 735.403,-276.761 750.441,-266.864"/><polygon fill="#000" stroke="#000" points="752.734 -269.546 759.163 -261.125 748.886 -263.698 752.734 -269.546"/></g><g id="node18" class="node"><title>17</title><polygon fill="#399de5" fill-opacity=".333" stroke="#000" points="884 -157 735 -157 735 -89 884 -89 884 -157"/><text x="809.5" y="-141.8" font-family="Times,serif" font-size="14" text-anchor="middle">worst texture &lt;= 30.975</text><text x="809.5" y="-126.8" font-family="Times,serif" font-size="14" text-anchor="middle">samples = 5</text><text x="809.5" y="-111.8" font-family="Times,serif" font-size="14" text-anchor="middle">value = [2, 3]</text><text x="809.5" y="-96.8" font-family="Times,serif" font-size="14" text-anchor="middle">class = benign</text></g><g id="edge17" class="edge"><title>16-&gt;17</title><path fill="none" stroke="#000" d="M809.5,-192.884C809.5,-184.778 809.5,-175.982 809.5,-167.472"/><polygon fill="#000" stroke="#000" points="813 -167.299 809.5 -157.299 806 -167.299 813 -167.299"/></g><g id="node21" class="node"><title>20</title><polygon fill="#e58139" stroke="#000" points="1015 -149.5 902 -149.5 902 -96.5 1015 -96.5 1015 -149.5"/><text x="958.5" y="-134.3" font-family="Times,serif" font-size="14" text-anchor="middle">samples = 132</text><text x="958.5" y="-119.3" font-family="Times,serif" font-size="14" text-anchor="middle">value = [132, 0]</text><text x="958.5" y="-104.3" font-family="Times,serif" font-size="14" text-anchor="middle">class = malignant</text></g><g id="edge20" class="edge"><title>16-&gt;20</title><path fill="none" stroke="#000" d="M857.876,-192.884C875.548,-180.786 895.466,-167.151 912.889,-155.224"/><polygon fill="#000" stroke="#000" points="914.946 -158.057 921.221 -149.52 910.992 -152.281 914.946 -158.057"/></g><g id="node19" class="node"><title>18</title><polygon fill="#399de5" stroke="#000" points="857 -53 762 -53 762 0 857 0 857 -53"/><text x="809.5" y="-37.8" font-family="Times,serif" font-size="14" text-anchor="middle">samples = 3</text><text x="809.5" y="-22.8" font-family="Times,serif" font-size="14" text-anchor="middle">value = [0, 3]</text><text x="809.5" y="-7.8" font-family="Times,serif" font-size="14" text-anchor="middle">class = benign</text></g><g id="edge18" class="edge"><title>17-&gt;18</title><path fill="none" stroke="#000" d="M809.5,-88.9485C809.5,-80.7153 809.5,-71.848 809.5,-63.4814"/><polygon fill="#000" stroke="#000" points="813 -63.237 809.5 -53.237 806 -63.237 813 -63.237"/></g><g id="node20" class="node"><title>19</title><polygon fill="#e58139" stroke="#000" points="988 -53 875 -53 875 0 988 0 988 -53"/><text x="931.5" y="-37.8" font-family="Times,serif" font-size="14" text-anchor="middle">samples = 2</text><text x="931.5" y="-22.8" font-family="Times,serif" font-size="14" text-anchor="middle">value = [2, 0]</text><text x="931.5" y="-7.8" font-family="Times,serif" font-size="14" text-anchor="middle">class = malignant</text></g><g id="edge19" class="edge"><title>17-&gt;19</title><path fill="none" stroke="#000" d="M852.17,-88.9485C864.452,-79.4346 877.828,-69.074 890.036,-59.6175"/><polygon fill="#000" stroke="#000" points="892.511 -62.127 898.274 -53.237 888.225 -56.593 892.511 -62.127"/></g></g></svg>